<svg class="business-menu__logo-svg" id="Layer_2" xmlns="http://www.w3.org/2000/svg" viewBox="0 0 212.97 81.69">
												<defs>
													<style>.cls-1{fill:#ffb500;}.cls-2{fill:#225fbf;}.cls-3{fill:#fff;}.cls-4{fill:transparent;}</style>
												</defs>
												<g id="Layer_1-2">
													<polygon class="cls-3" points="159.62 23.32 153.35 23.32 153.35 11.21 149.58 11.21 149.58 26.41 159.62 26.41 159.62 23.32"/>
													<polygon class="cls-3" points="172.01 23.32 165.15 23.32 165.15 20.36 171.47 20.36 171.47 17.26 165.15 17.26 165.15 14.3 172.01 14.3 172.01 11.21 161.37 11.21 161.37 26.41 172.01 26.41 172.01 23.32"/>
													<polygon class="cls-3" points="178.6 26.41 183.55 26.41 188.65 11.3 188.68 11.21 184.46 11.21 181.09 22.25 181.07 22.25 177.71 11.26 177.69 11.21 173.47 11.21 178.59 26.37 178.6 26.41"/>
													<polygon class="cls-3" points="200.78 23.32 193.92 23.32 193.92 20.36 200.25 20.36 200.25 17.26 193.92 17.26 193.92 14.3 200.78 14.3 200.78 11.21 190.14 11.21 190.14 26.41 200.78 26.41 200.78 23.32"/>
													<polygon class="cls-3" points="206.71 23.32 206.71 11.21 202.93 11.21 202.93 26.41 212.97 26.41 212.97 23.32 206.71 23.32"/>
													<path class="cls-3" d="m149.85,30.69v14.99c0,1.64.39,3.1,1.16,4.35.77,1.24,1.86,2.23,3.26,2.93,1.39.7,3.05,1.05,4.92,1.05s3.51-.35,4.9-1.05c1.39-.7,2.49-1.68,3.27-2.93.77-1.25,1.17-2.71,1.17-4.35v-14.99h-4.27v14.64c0,.93-.21,1.78-.62,2.51-.41.73-1,1.31-1.75,1.72-.76.41-1.66.62-2.69.62s-1.93-.21-2.69-.62c-.75-.41-1.34-.99-1.75-1.72-.41-.73-.62-1.57-.62-2.51v-14.64h-4.28Z"/>
													<path class="cls-3" d="m177.16,45.95h4.3c1.77,0,3.27-.33,4.48-.98,1.21-.65,2.14-1.56,2.76-2.71.62-1.14.93-2.47.93-3.93s-.31-2.77-.93-3.92c-.62-1.15-1.54-2.06-2.74-2.72-1.2-.66-2.7-.99-4.45-.99h-8.63v22.97h4.27v-7.72Zm0-11.66h3.72c1.02,0,1.86.17,2.5.51.64.34,1.12.81,1.43,1.41s.47,1.31.47,2.11-.16,1.51-.47,2.12c-.31.61-.79,1.09-1.43,1.44-.64.35-1.48.53-2.49.53h-3.75v-8.12Z"/>
													<path class="cls-3" d="m157.15,58.6c-.67-.36-1.47-.54-2.38-.54h-5.07v12.24h3.06v-3.76h1.92c.93,0,1.75-.18,2.43-.52.68-.35,1.22-.84,1.58-1.48.37-.63.56-1.38.56-2.23s-.18-1.59-.54-2.22c-.37-.64-.89-1.14-1.56-1.5Zm-1.29,4.66c-.15.27-.36.47-.65.62-.29.15-.65.22-1.08.22h-1.37v-3.55h1.37c.43,0,.79.07,1.07.22s.5.35.65.61c.15.26.22.58.22.94s-.07.67-.22.94Z"/>
													<polygon class="cls-3" points="160.55 70.31 169.13 70.31 169.13 67.8 163.61 67.8 163.61 65.45 168.7 65.45 168.7 62.93 163.61 62.93 163.61 60.58 169.13 60.58 169.13 58.07 160.55 58.07 160.55 70.31"/>
													<path class="cls-3" d="m179.5,58.63c-.88-.48-1.88-.73-2.97-.73s-2.09.25-2.97.73-1.58,1.2-2.1,2.14c-.51.93-.77,2.08-.77,3.42s.26,2.48.77,3.41c.52.93,1.22,1.65,2.1,2.14.88.49,1.88.74,2.97.74s2.09-.25,2.97-.73c.88-.49,1.59-1.2,2.11-2.14.52-.93.78-2.08.78-3.42s-.26-2.49-.78-3.42c-.52-.93-1.22-1.65-2.11-2.14Zm-.57,7.53c-.22.53-.53.93-.93,1.2-.4.27-.89.41-1.46.41s-1.05-.14-1.46-.41c-.41-.27-.71-.67-.94-1.2-.22-.53-.33-1.19-.33-1.97s.11-1.44.33-1.97c.22-.54.53-.93.94-1.2.4-.27.89-.41,1.46-.41s1.06.14,1.46.41c.4.27.71.68.93,1.2.22.54.33,1.2.33,1.97s-.11,1.44-.33,1.97Z"/><path class="cls-3" d="m191.4,58.6c-.67-.36-1.47-.54-2.38-.54h-5.07v12.24h3.06v-3.76h1.92c.93,0,1.75-.18,2.43-.52.68-.35,1.22-.84,1.59-1.48.37-.63.56-1.38.56-2.23s-.18-1.59-.55-2.22c-.36-.64-.88-1.14-1.55-1.5Zm-1.29,4.66c-.15.26-.36.47-.65.62-.28.15-.65.22-1.08.22h-1.37v-3.55h1.37c.43,0,.79.07,1.07.22s.5.35.65.61c.15.26.22.58.22.94s-.08.67-.22.94Z"/>
													<polygon class="cls-3" points="197.87 58.07 194.81 58.07 194.81 70.31 202.91 70.31 202.91 67.8 197.87 67.8 197.87 58.07"/>
													<polygon class="cls-3" points="204.28 70.31 212.86 70.31 212.86 67.8 207.35 67.8 207.35 65.45 212.43 65.45 212.43 62.93 207.35 62.93 207.35 60.58 212.86 60.58 212.86 58.07 204.28 58.07 204.28 70.31"/>
													<polygon class="cls-1" points="192.24 49.39 192.24 53.06 202.58 43.78 212.92 53.06 212.92 49.39 202.58 40.11 192.24 49.39"/>
													<polygon class="cls-1" points="192.24 40.13 192.24 43.8 202.58 34.52 212.92 43.8 212.92 40.13 202.58 30.85 192.24 40.13"/>
													<polygon class="cls-1" points="209.11 30.71 212.92 34.13 212.92 30.71 209.11 30.71"/>
													<polygon class="cls-1" points="196.05 30.71 192.24 34.13 192.24 30.71 196.05 30.71"/>
													<polygon class="cls-1" points="202.58 50.04 198.61 53.6 206.55 53.6 202.58 50.04"/>
													<rect class="cls-3" x="121.1" width="1.02" height="81.69"/>
													<polygon class="cls-2" points="94.73 29.9 90.03 29.9 86.18 36.34 82.33 29.9 77.63 29.9 83.83 40.28 76.54 52.47 81.26 52.47 86.18 44.23 91.1 52.47 95.82 52.47 88.54 40.28 94.73 29.9"/>
													<path class="cls-2" d="m78.9,55.52l-.04.04c-7.16,7.41-15.36,13.04-21.19,13.03-1.62,0-3.06-.45-4.24-1.42-2.8-2.28-2.28-6.55-.83-11.65h4.2c-1.52,4.3-2.23,7.62-.92,8.69,2.14,1.75,9.88-1.15,17.93-8.67l.02-.02h5.07Z"/>
													<path class="cls-2" d="m95.62,26.84h-4.08c1.06-3.34,1.37-5.8.27-6.7-2.14-1.75-9.88,1.14-17.93,8.66l-3.84,3.99h-4.98l3.76-4c7.16-7.41,15.36-13.04,21.19-13.03,1.62,0,3.06.45,4.24,1.41,2.42,1.98,2.36,5.46,1.36,9.67Z"/>
													<polygon class="cls-3" points="4.61 30.11 0 30.11 0 52.48 14.4 52.48 14.4 48.78 4.61 48.78 4.61 30.11"/>
													<path class="cls-3" d="m31.23,43.8c0-2.63-.65-4.67-1.96-6.1-1.3-1.43-3.1-2.15-5.37-2.15-1.52,0-2.87.35-4.05,1.06-1.18.71-2.09,1.73-2.74,3.04-.65,1.32-.97,2.81-.97,4.48v.43c0,2.49.77,4.48,2.3,5.98,1.53,1.49,3.52,2.24,5.95,2.24,1.39,0,2.65-.26,3.78-.79,1.14-.52,2.04-1.26,2.71-2.2l-2.18-2.44c-.96,1.24-2.3,1.86-4.01,1.86-1.11,0-2.02-.32-2.74-.98-.72-.65-1.15-1.53-1.3-2.61h10.58v-1.81Zm-4.36-1.21h-6.18c.16-1.11.5-1.96,1.06-2.56.55-.6,1.26-.89,2.14-.89.94,0,1.67.27,2.19.81.51.54.77,1.3.79,2.29v.36Z"/>
													<polygon class="cls-3" points="39.78 47.06 36.69 35.86 32.05 35.86 37.66 52.48 41.9 52.48 47.51 35.86 42.87 35.86 39.78 47.06"/>
													<path class="cls-3" d="m63.75,43.8c0-2.63-.65-4.67-1.96-6.1-1.3-1.43-3.1-2.15-5.37-2.15-1.51,0-2.86.35-4.05,1.06s-2.1,1.73-2.74,3.04c-.64,1.32-.97,2.81-.97,4.48v.43c0,2.49.76,4.48,2.29,5.98,1.54,1.49,3.52,2.24,5.96,2.24,1.38,0,2.64-.26,3.78-.79,1.14-.52,2.04-1.26,2.71-2.2l-2.18-2.44c-.97,1.24-2.3,1.86-4.01,1.86-1.11,0-2.02-.32-2.74-.98-.73-.65-1.15-1.53-1.3-2.61h10.59v-1.81Zm-4.36-1.21h-6.18c.15-1.11.5-1.96,1.05-2.56.55-.6,1.26-.89,2.14-.89.94,0,1.67.27,2.18.81.51.54.78,1.3.8,2.29v.36Z"/>
													<path class="cls-3" d="m70.7,41.6c.52-1.14,1.62-1.71,3.3-1.71.46,0,.99.04,1.6.12l.06-4.27c-.43-.13-.89-.2-1.38-.2-1.58,0-2.81.76-3.7,2.29l-.12-1.98h-4.19v16.62h4.44v-10.88Z"/>
												</g>
											</svg>